PathFileType	4	(X/Y/Z)	C:/Users/Carlo/Dropbox/Carlos/SARAH/CongressoMarcha2025/WorkshopOpenSim/C3D/Caso03/pyCGM2 Walking02.c3d.trc
DataRate	CameraRate	NumFrames	NumMarkers	Units	OrigDataRate	OrigDataStartFrame	OrigNumFrames
100.000000	100.000000	2	163	mm	100.000000	255	510
Frame#	Time	PELO			PELA			PELL			PELP			LFEO			LFEA			LFEL			LFEP			LTIO			LTIA			LTIL			LTIP			LFOO			LFOA			LFOL			LFOP			LTOO			LTOA			LTOL			LTOP			RFEO			RFEA			RFEL			RFEP			RTIO			RTIA			RTIL			RTIP			RFOO			RFOA			RFOL			RFOP			RTOO			RTOA			RTOL			RTOP			PELVIS_CGM_2.3O			PELVIS_CGM_2.3A			PELVIS_CGM_2.3L			PELVIS_CGM_2.3P			LFEMUR_CGM_2.3O			LFEMUR_CGM_2.3A			LFEMUR_CGM_2.3L			LFEMUR_CGM_2.3P			LTIBIA_CGM_2.3O			LTIBIA_CGM_2.3A			LTIBIA_CGM_2.3L			LTIBIA_CGM_2.3P			LFOOT_CGM_2.3O			LFOOT_CGM_2.3A			LFOOT_CGM_2.3L			LFOOT_CGM_2.3P			LTOES_CGM_2.3O			LTOES_CGM_2.3A			LTOES_CGM_2.3L			LTOES_CGM_2.3P			RFEMUR_CGM_2.3O			RFEMUR_CGM_2.3A			RFEMUR_CGM_2.3L			RFEMUR_CGM_2.3P			RTIBIA_CGM_2.3O			RTIBIA_CGM_2.3A			RTIBIA_CGM_2.3L			RTIBIA_CGM_2.3P			RFOOT_CGM_2.3O			RFOOT_CGM_2.3A			RFOOT_CGM_2.3L			RFOOT_CGM_2.3P			RTOES_CGM_2.3O			RTOES_CGM_2.3A			RTOES_CGM_2.3L			RTOES_CGM_2.3P			LASI			RASI			LPSI			RPSI			LTHI			LTHAP			LTHAD			LKNE			LTIB			LTIAP			LTIAD			LANK			LHEE			LTOE			RTHI			RTHAP			RTHAD			RKNE			RTIB			RTIAP			RTIAD			RANK			RHEE			RTOE			LHipAngles			LKneeAngles			LAbsAnkleAngle			LAnkleAngles			RHipAngles			RKneeAngles			RAnkleAngles			RAbsAnkleAngle			LPelvisAngles			RPelvisAngles			LFootProgressAngles			RFootProgressAngles			LHipAngles_CGM_2.3			LKneeAngles_CGM_2.3			LAnkleAngles_CGM_2.3			RHipAngles_CGM_2.3			RKneeAngles_CGM_2.3			RAnkleAngles_CGM_2.3			LFootProgressAngles_CGM_2.3			RFootProgressAngles_CGM_2.3			LPelvisAngles_CGM_2.3			RPelvisAngles_CGM_2.3			LHipPower			LKneePower			LAnklePower			RHipPower			RKneePower			RAnklePower			LHipPower_CGM_2.3			LKneePower_CGM_2.3			LAnklePower_CGM_2.3			RHipPower_CGM_2.3			RKneePower_CGM_2.3			RAnklePower_CGM_2.3			RGroundReactionForce			RNormalisedGRF			LAnkleForce			RAnkleForce			RKneeForce			LKneeForce			RHipForce			LHipForce			LHipForce_CGM_2.3			LKneeForce_CGM_2.3			LAnkleForce_CGM_2.3			RHipForce_CGM_2.3			RKneeForce_CGM_2.3			RAnkleForce_CGM_2.3			RGroundReactionMoment			LAnkleMoment			RAnkleMoment			RKneeMoment			LKneeMoment			RHipMoment			LHipMoment			LHipMoment_CGM_2.3			LKneeMoment_CGM_2.3			LAnkleMoment_CGM_2.3			RHipMoment_CGM_2.3			RKneeMoment_CGM_2.3			RAnkleMoment_CGM_2.3			LHJC_CGM_2.3			LKJC_CGM_2.3			RHJC_CGM_2.3			RKJC_CGM_2.3			LAJC_CGM_2.3			RAJC_CGM_2.3			
		X1	Y1	Z1	X2	Y2	Z2	X3	Y3	Z3	X4	Y4	Z4	X5	Y5	Z5	X6	Y6	Z6	X7	Y7	Z7	X8	Y8	Z8	X9	Y9	Z9	X10	Y10	Z10	X11	Y11	Z11	X12	Y12	Z12	X13	Y13	Z13	X14	Y14	Z14	X15	Y15	Z15	X16	Y16	Z16	X17	Y17	Z17	X18	Y18	Z18	X19	Y19	Z19	X20	Y20	Z20	X21	Y21	Z21	X22	Y22	Z22	X23	Y23	Z23	X24	Y24	Z24	X25	Y25	Z25	X26	Y26	Z26	X27	Y27	Z27	X28	Y28	Z28	X29	Y29	Z29	X30	Y30	Z30	X31	Y31	Z31	X32	Y32	Z32	X33	Y33	Z33	X34	Y34	Z34	X35	Y35	Z35	X36	Y36	Z36	X37	Y37	Z37	X38	Y38	Z38	X39	Y39	Z39	X40	Y40	Z40	X41	Y41	Z41	X42	Y42	Z42	X43	Y43	Z43	X44	Y44	Z44	X45	Y45	Z45	X46	Y46	Z46	X47	Y47	Z47	X48	Y48	Z48	X49	Y49	Z49	X50	Y50	Z50	X51	Y51	Z51	X52	Y52	Z52	X53	Y53	Z53	X54	Y54	Z54	X55	Y55	Z55	X56	Y56	Z56	X57	Y57	Z57	X58	Y58	Z58	X59	Y59	Z59	X60	Y60	Z60	X61	Y61	Z61	X62	Y62	Z62	X63	Y63	Z63	X64	Y64	Z64	X65	Y65	Z65	X66	Y66	Z66	X67	Y67	Z67	X68	Y68	Z68	X69	Y69	Z69	X70	Y70	Z70	X71	Y71	Z71	X72	Y72	Z72	X73	Y73	Z73	X74	Y74	Z74	X75	Y75	Z75	X76	Y76	Z76	X77	Y77	Z77	X78	Y78	Z78	X79	Y79	Z79	X80	Y80	Z80	X81	Y81	Z81	X82	Y82	Z82	X83	Y83	Z83	X84	Y84	Z84	X85	Y85	Z85	X86	Y86	Z86	X87	Y87	Z87	X88	Y88	Z88	X89	Y89	Z89	X90	Y90	Z90	X91	Y91	Z91	X92	Y92	Z92	X93	Y93	Z93	X94	Y94	Z94	X95	Y95	Z95	X96	Y96	Z96	X97	Y97	Z97	X98	Y98	Z98	X99	Y99	Z99	X100	Y100	Z100	X101	Y101	Z101	X102	Y102	Z102	X103	Y103	Z103	X104	Y104	Z104	X105	Y105	Z105	X106	Y106	Z106	X107	Y107	Z107	X108	Y108	Z108	X109	Y109	Z109	X110	Y110	Z110	X111	Y111	Z111	X112	Y112	Z112	X113	Y113	Z113	X114	Y114	Z114	X115	Y115	Z115	X116	Y116	Z116	X117	Y117	Z117	X118	Y118	Z118	X119	Y119	Z119	X120	Y120	Z120	X121	Y121	Z121	X122	Y122	Z122	X123	Y123	Z123	X124	Y124	Z124	X125	Y125	Z125	X126	Y126	Z126	X127	Y127	Z127	X128	Y128	Z128	X129	Y129	Z129	X130	Y130	Z130	X131	Y131	Z131	X132	Y132	Z132	X133	Y133	Z133	X134	Y134	Z134	X135	Y135	Z135	X136	Y136	Z136	X137	Y137	Z137	X138	Y138	Z138	X139	Y139	Z139	X140	Y140	Z140	X141	Y141	Z141	X142	Y142	Z142	X143	Y143	Z143	X144	Y144	Z144	X145	Y145	Z145	X146	Y146	Z146	X147	Y147	Z147	X148	Y148	Z148	X149	Y149	Z149	X150	Y150	Z150	X151	Y151	Z151	X152	Y152	Z152	X153	Y153	Z153	X154	Y154	Z154	X155	Y155	Z155	X156	Y156	Z156	X157	Y157	Z157	X158	Y158	Z158	X159	Y159	Z159	X160	Y160	Z160	X161	Y161	Z161	X162	Y162	Z162	X163	Y163	Z163	

256	2.55	69.97024536132815	865.7317504882817	15.25622558593751	231.2395019531251	851.0863647460942	7.318652629852298	61.29242706298831	857.814575195313	-146.4449768066407	84.18951416015628	1027.001953125	6.597065925598148	5.743476867675783	451.8059082031252	-79.88831329345706	400.7663574218752	400.384704589844	-191.3490905761719	-102.7683486938477	481.1121826171877	-477.9800109863284	63.12664031982425	861.2050781250005	-65.39111328125003	-310.5559082031251	203.0040435791017	-50.09402465820315	-78.04345703125003	-98.05790710449224	-95.7801208496094	-360.9531250000001	221.646942138672	-429.435729980469	-10.24676513671875	439.2278442382815	-78.38211059570315	-278.5755920410157	76.972282409668	-58.11243057250979	-109.1413574218751	138.6157989501954	-82.52935791015628	-300.4848632812501	65.78582763671878	-238.3870239257814	-341.1542968750001	247.7909545898439	-61.10677337646487	-257.7160644531251	20.0327320098877	-57.11430740356448	-201.2379760742189	40.58055877685548	-65.2532653808594	-265.0191345214845	16.30390739440919	-117.2058334350587	-278.5756225585939	76.97229766845706	-58.11243057250979	212.1029815673829	485.4691467285159	92.02264404296878	596.220397949219	620.2617187500002	117.826515197754	235.1624908447267	497.6822509765627	-315.0402221679689	76.81387329101565	870.2585449218755	95.90354156494143	201.6013488769532	86.48065185546878	82.71240234375003	580.2987060546877	76.22647094726565	94.99590301513675	214.1163787841798	94.98882293701175	-296.0205078125001	211.5716247558595	465.281433105469	91.55156707763675	326.9161376953126	75.65313720703128	113.9169311523438	325.7704162597657	256.6448364257814	112.9860153198243	354.3836364746095	74.90686798095706	-64.98294067382815	148.0183715820313	74.37942504882815	86.45507812500003	386.548767089844	76.07771301269534	123.0708923339844	386.1668395996096	136.4083099365235	122.7605743408204	395.7045898437502	75.8289489746094	63.43758010864261	326.9161376953126	75.65311431884768	113.9169311523438	60.12390136718753	886.7369995117192	19.03529930114747	219.9728851318361	874.3444824218755	10.9972734451294	50.80500030517581	869.9065551757817	-140.3377838134766	71.58440399169925	1045.900634765625	1.556880950927735	7.077909946441654	443.9729919433596	-81.16310119628909	427.1437988281252	403.5923156738284	-190.5266723632813	-99.59885406494146	475.7822570800784	-502.653991699219	54.09978866577151	876.8746948242192	-60.39362716674808	-307.936004638672	194.9689941406251	-52.25870132446292	-95.76605224609378	-94.59841918945315	-234.486297607422	-441.4378662109377	322.3253479003907	-410.0713195800784	7.077392578125004	443.9736328125002	-81.16355895996097	-271.2369995117189	68.19529724121097	-35.98759841918947	-100.1119384765626	130.8418579101563	-71.82969665527347	-303.8647460937501	53.0739669799805	-218.1957397460939	-335.616180419922	242.3784942626954	-38.91466140747072	-249.7779998779298	10.13440036773682	-35.01179885864259	-192.7363739013673	31.01656341552736	-46.9591522216797	-260.6539001464845	5.09396266937256	-95.74777984619143	-271.2377014160157	68.1954040527344	-35.98748779296876	213.5989990234376	479.8290100097659	91.36170196533206	630.3553466796877	627.0893554687502	102.2695465087891	221.5153808593751	490.1612854003909	-350.5896911621095	66.1475524902344	896.599975585938	98.46408081054693	209.9309997558595	80.65260314941409	85.34590148925784	602.9898681640627	75.98787689208987	155.1597137451172	279.8042297363282	85.9336853027344	-307.6945800781251	213.599822998047	479.8284301757815	91.36164855957034	346.4519958496095	71.361198425293	92.46080017089847	341.9853820800782	262.680389404297	92.97336578369143	373.8610839843751	72.50849914550784	-96.93476867675787	157.1056365966797	67.01414489746097	65.03250122070315	409.5679931640627	72.81020355224612	101.6039962768555	408.0791320800784	136.5832061767579	101.7748489379883	418.7043457031252	73.19263458251956	38.47220993041994	346.452606201172	71.36119079589847	92.46124267578128	111.8277206420899	943.567016601563	-122.2544479370118	125.8628158569337	956.3718261718755	139.2721862792969	-80.66534423828128	966.3212280273442	-24.59007072448732	-74.34629058837893	970.1738891601567	77.58193206787112	11.78820991516114	609.8220825195315	-150.7672424316407	131.9932708740235	731.4243774414065	-114.7203521728516	122.2296752929688	564.1187744140627	-99.07646942138678	-9.471312522888187	455.9150390625002	-135.7061004638672	-199.3177795410157	320.1206665039064	-119.3496093750001	-37.32711791992189	345.1896362304689	-66.10469055175784	-185.9618835449219	245.8531799316407	-47.56295013427736	-326.2919311523439	207.1022338867189	-89.90081787109378	-355.8503417968751	228.0699920654298	-39.53493118286134	-292.9244995117189	56.31832504272464	-42.34225845336915	133.4268493652344	685.133483886719	191.9518737792969	201.135223388672	786.8370971679692	112.0780715942383	243.1098175048829	630.5969238281252	100.5635681152344	208.8523406982423	483.7474670410159	149.4048614501954	197.1741027832032	301.7486877441407	164.911849975586	240.2105712890626	331.7984619140626	68.97361755371097	244.3097991943361	195.0054321289064	76.78945922851565	198.3095703125001	75.57078552246097	124.174903869629	156.1032409667969	47.89951705932619	77.2347106933594	346.0198974609376	48.52862167358401	102.5871047973633	-5.204471588134767	-12.98095893859864	-2.697512388229371	-5.214236259460451	5.769580841064455	43.99948883056642	0	0	-18.08827018737794	1.981092333793641	16.48832321166993	-18.89272499084473	2.166471242904664	-7.45391941070557	24.57576942443849	-0.4662616252899172	1.336947560310364	20.88601875305176	1.496407270431519	-4.563592910766603	2.102466344833375	0	0	2.095788478851319	-3.061606884002687	-2.810289382934571	5.038759708404543	3.061606884002687	2.810289382934571	5.038759708404543	7.713343620300297	0.9429902434349064	-20.12009048461915	-0.2981431186199189	-8.726903915405277	-90.40793609619143	-9.071829795837406	-11.8528003692627	-1.645730018615724	-4.411759853363039	-14.88959884643555	45.79330062866212	1.729689955711366	25.19190025329591	-20.03289985656739	5.475190162658693	-6.583610057830814	24.04850006103517	-0.4851909577846529	-9.058489799499515	20.00209999084473	0.3727580010890962	1.854670047760011	1.94737994670868	-11.12849998474121	-180.9029998779297	-159.7149963378907	-179.8450012207032	8.240300178527836	91.31519317626956	186.0180053710938	-3.346400022506716	-175.5480041503907	-186.0180053710938	3.346400022506716	-175.5480041503907	0	0.9373169541358952	0	0	-0.4608441889286043	0	0	-0.4416244328022005	0	0	0.3977766633033755	0	0	-0.396510571241379	0	0	-0.5241649150848391	0	nan	nan	nan	nan	nan	nan	nan	nan	nan	nan	nan	nan	nan	nan	nan	nan	nan	nan	-1.855788707733155	11.17479991912842	-0.4396567046642306	4.481719493865969	113.912338256836	-18.91731643676759	-0.06598252803087237	-0.1233224421739579	-0.4156446158885958	-0.1168311312794686	1.828042387962342	11.06690216064453	-0.6511629819869997	-10.63014793395996	1.915928721427918	-0.1373565495014191	1.026666402816773	-0.2152359932661058	-0.6460998654365542	-9.56977462768555	-2.206300735473634	-0.1000850647687913	2.247547626495362	0.4050607383251192	-0.3305220007896424	2.076740026474	-0.4655370116233828	-0.1994670033454896	0.885953009128571	0.1305489987134934	-0.06878670305013659	0.01117310021072626	0.2894580066204072	0.5629420280456545	-9.463709831237797	2.374209880828858	-0.6673430204391482	-10.58049964904786	-1.652140021324159	-0.2543680071830751	1.643980026245118	-11.05449962615967	1292.716186523438	151.2816314697266	-668.999938964844	1.830705940837215e-16	-8.009344100952152	-72.3947448730469	60.65718078613284	-21.85178565979005	252.6753540039064	283.8043212890626	-13.75635337829591	612.211853027344	-52.26422119140628	-3.317497014999391	95.74917602539065	548.8731079101565	-113.6148529052735	317.7922668457032	-165.2549591064454	34.54699325561525	-348.5364990234376	-88.04270172119143	39.55699920654298	-394.3640136718752	-61.17279815673831	2.422420024871827	111.3040008544922	-2.712080001831056	-5.741600036621096	-42.13759994506837	504.2629699707034	-113.4789962768555	528.8549804687502	274.3670043945314	-15.77660083770753	603.810974121094	73.77519989013675	-18.48310089111329	170.4429931640626	54.09980010986331	876.8750000000005	-60.39350128173831	7.077909946441654	443.9729919433596	-81.16310119628909	66.14790344238284	896.599975585938	98.46410369873053	213.5989990234376	479.8290100097659	91.36170196533206	-307.936004638672	194.9689941406251	-52.25870132446292	209.9309997558595	80.65260314941409	85.34590148925784	
257	2.56	83.86109924316409	868.378540039063	16.94103622436524	245.1614532470704	854.2619018554692	8.683279991149906	74.8785095214844	860.3169555664067	-144.7363739013672	97.52793121337896	1029.688842773438	8.138444900512699	32.3026466369629	453.4445800781252	-79.31020355224612	429.0830993652346	414.4590454101565	-187.2157592773438	-73.42085266113284	480.0937194824221	-477.6951904296877	76.86744689941409	863.771606445313	-63.68885040283206	-286.6143798828126	212.9615173339845	-49.06142425537112	-60.98281860351565	-90.83782958984378	-85.45485687255862	-331.4046020507814	224.8980865478517	-426.393493652344	16.06097412109376	441.1973571777346	-77.76968383789065	-264.308807373047	84.91385650634768	-57.85320281982425	-90.44834899902347	133.5757904052735	-80.40632629394534	-285.455535888672	76.79800415039065	-238.3830566406251	-313.5982055664064	260.0430603027345	-59.95264816284183	-247.8790283203126	26.53746986389162	-57.15338516235354	-189.9255371093751	42.75811767578126	-64.67109680175784	-254.9279327392579	23.83218574523926	-117.3300018310547	-264.3088378906251	84.91388702392581	-57.85320281982425	220.5089569091798	485.9382629394534	92.92453765869143	606.7520751953127	614.9832763671877	121.2284927368165	245.8765716552736	499.3243408203127	-314.2790832519532	90.85473632812503	872.985717773438	97.57093811035162	202.0298614501954	86.7963562011719	82.62395477294925	580.8152465820315	68.87490844726565	97.53526306152349	217.3821105957032	95.86851501464847	-296.458953857422	219.5750579833986	465.7666625976565	92.40396881103518	327.2985839843751	75.77890777587893	113.9468307495118	326.2879028320314	256.7735290527345	113.5759048461915	354.9830932617189	75.56692504882815	-64.92108917236331	148.4333953857422	74.72340393066409	86.26399230957034	386.9202880859377	76.13074493408206	123.1744461059571	386.5833740234377	136.4622802734376	123.0507888793946	396.1484375000002	76.06007385253909	63.55182266235354	327.298553466797	75.77889251708987	113.9468460083008	74.41809844970706	889.130981445313	20.50219917297364	234.312957763672	877.4855346679692	12.26224803924561	64.96984863281253	872.1552124023442	-138.8478393554688	85.10659027099612	1048.33544921875	2.908208847045899	35.73649978637697	445.0100097656252	-80.63680267333987	455.8582153320315	419.1429748535159	-194.1046447753907	-75.98321533203128	474.4313049316409	-500.993103027344	68.3365173339844	879.1892089843755	-58.91225051879886	-284.5109863281251	202.7619934082032	-51.83710098266604	-79.35679626464847	-90.3843688964844	-236.3615264892579	-416.5178222656252	334.8715209960939	-408.479187011719	35.73620605468751	445.0110473632815	-80.63750457763675	-257.8179931640626	73.44480133056643	-36.0993995666504	-82.70426940917972	122.3375701904297	-74.01668548583987	-293.7804260253907	61.25805664062503	-217.8993377685548	-308.1660461425782	252.201629638672	-38.12264633178712	-241.0350036621095	13.85929965972901	-35.42499923706056	-182.6638336181641	30.15686798095705	-48.064079284668	-253.0224761962892	9.797055244445804	-96.02491760253912	-257.8176574707032	73.44484710693362	-36.09941482543947	221.8619995117189	480.2040100097659	92.38140106201175	640.6535644531252	621.2858886718752	106.5232772827149	232.8549957275392	491.8628540039065	-349.4711914062501	80.49986267089847	899.0720214843755	99.91677093505865	209.9010009765626	81.2102966308594	85.17120361328128	602.530700683594	68.15374755859378	156.3220214843751	281.2440795898439	86.16938018798831	-307.6093750000001	221.8625793457032	480.2039489746096	92.38137817382815	346.4129943847657	71.88819885253909	92.42459869384768	341.9700622558595	263.2066650390626	93.28647613525393	374.0383911132814	73.38278961181643	-96.93706512451178	157.0975494384766	67.61635589599612	64.77224731445315	409.518005371094	73.31220245361331	101.6419982910157	408.0370178222659	137.0849609375001	101.9292907714844	418.7264709472659	73.81040191650393	38.52151107788087	346.4129333496095	71.88825988769534	92.42456054687503	125.1719665527344	946.2475585937505	-120.8313369750977	139.7134399414063	959.2980346679692	140.8989257812501	-67.10581970214847	968.118774414063	-23.33732604980469	-60.65890884399417	972.6284179687505	78.85987091064456	33.96627044677736	610.5862426757815	-149.9974060058594	150.2133026123047	735.3836669921877	-113.8610610961915	145.835433959961	567.9270019531252	-99.03596496582037	17.45655822753907	457.186706542969	-135.2529296875001	-172.9947814941407	325.9901123046876	-118.8536453247071	-10.27848339080811	347.2017211914064	-65.90209960937503	-161.1145477294922	250.971649169922	-47.26232528686525	-301.756072998047	216.5581512451173	-89.14625549316409	-329.350311279297	239.9612426757814	-38.9676971435547	-280.229705810547	62.89310073852542	-42.25873184204103	144.3023529052735	686.448181152344	192.9687347412111	213.7880096435548	787.6930541992192	114.5205383300782	253.6048583984376	630.4888305664065	102.2336044311524	216.9357147216798	484.0527038574221	150.2824096679688	201.3441619873048	302.0627746582032	165.4214477539063	245.5327911376954	331.5769348144532	69.563835144043	246.7305603027345	194.6276397705079	77.11540985107425	198.2293395996095	75.86682128906253	124.0377273559571	156.0221252441407	47.86666107177736	77.1376647949219	345.8681945800782	48.81483459472659	102.4832458496094	-5.34149742126465	-12.29344272613526	-1.088765382766724	-5.291328430175783	6.408588409423832	46.97074508666994	0	0	-21.28782463073731	2.990119695663453	14.34957313537598	-22.00852966308594	2.344003200531007	-7.897470474243168	23.54473876953126	-0.5679278373718264	1.219558000564576	21.17560386657716	1.357096552848816	-4.21079206466675	3.187427282333376	0	0	3.178815841674806	-3.112374782562258	-2.923885345458985	4.84275531768799	3.112374782562258	2.923885345458985	4.84275531768799	7.120926380157474	0.6611447334289553	-15.71903514862061	-0.1188138201832772	-8.797673225402836	-90.3381042480469	-9.159790039062504	-12.15830039978028	0.01878109946846963	-5.409529685974123	-15.27139949798585	48.84059906005862	2.639649868011475	24.48060035705568	-23.59580039978028	5.640190124511721	-6.997749805450443	22.95100021362305	-0.5185070037841799	-8.888839721679691	20.35659980773926	0.2200970053672792	1.999919891357423	3.129379987716677	-11.78100013732911	-180.6239929199219	-164.270004272461	-179.738998413086	8.308030128479007	91.2926940917969	186.0700073242188	-3.39324998855591	-175.8159942626954	-186.0700073242188	3.39324998855591	-175.8159942626954	0	0.9547564387321477	0	0	-0.63370817899704	0	0	-0.3682848513126374	0	0	0.4484320282936098	0	0	-0.1466284692287446	0	0	-0.4953662157058718	0	nan	nan	nan	nan	nan	nan	nan	nan	nan	nan	nan	nan	nan	nan	nan	nan	nan	nan	-1.696111202239991	11.00682830810547	-0.3743571043014527	3.816076517105104	112.2000808715821	-17.28961372375489	-0.06163069978356364	-0.07473526149988177	-0.4198167920112612	-0.107339583337307	1.67897379398346	10.89735126495362	-0.5986834764480593	-10.42782783508301	1.982041597366334	-0.1434061825275422	0.8815779089927678	-0.192738100886345	-0.6162136793136599	-9.418157577514652	-2.132262706756593	-0.08551188558340075	2.089331626892091	0.3151081800460817	-0.3109689950942994	1.962849974632264	-0.3327980041503907	-0.1862220019102097	0.758018016815186	0.1522309929132462	-0.07652650028467181	0.02474090084433557	0.2724080085754396	0.6441919803619387	-9.347539901733402	2.313679933547975	-0.6115530133247378	-10.41930007934571	-1.726220011711121	-0.1922470033168794	1.477759957313538	-10.91359996795655	1271.007568359375	137.9712524414063	-638.083435058594	-7.322823763348861e-16	-5.797930717468263	-81.43967437744143	56.10294723510745	-22.96514511108399	277.4729614257814	255.077117919922	-14.38548851013184	613.930603027344	-48.67321777343753	-1.781350135803224	135.0885925292969	508.3840026855471	-106.5367584228516	280.9866638183595	-152.6352691650391	37.06411743164064	-333.4885864257814	-82.31610107421878	41.96569824218751	-341.9609985351564	-64.64489746093753	2.583029985427857	134.9700012207032	-2.616410017013551	-8.968830108642582	-52.95439910888675	447.2279968261721	-104.8450012207032	491.2560119628909	240.8950042724611	-17.02479934692384	599.237976074219	64.22540283203128	-20.95079994201661	202.7290039062501	68.33650207519534	879.1900024414067	-58.91230010986331	35.73649978637697	445.0100097656252	-80.63680267333987	80.49970245361331	899.0720214843755	99.91680145263678	221.8619995117189	480.2040100097659	92.38140106201175	-284.5109863281251	202.7619934082032	-51.83710098266604	209.9010009765626	81.2102966308594	85.17120361328128	
